<?xml version="1.0" encoding="utf-8"?>
<!-- Generator: Adobe Illustrator 27.1.1, SVG Export Plug-In . SVG Version: 6.00 Build 0)  -->
<svg version="1.1" id="Camada_1" xmlns="http://www.w3.org/2000/svg" xmlns:xlink="http://www.w3.org/1999/xlink" x="0px" y="0px"
	 viewBox="0 0 290 120" style="enable-background:new 0 0 290 120;" xml:space="preserve">
<style type="text/css">
	.st0{fill:#FF7800;}
	.st1{fill:#FF5000;}
	.st2{fill:#FFAA00;}
	.st3{fill:#FFDC00;}
</style>
<g>
	<g>
		<path id="Caminho_30197" d="M52,71.8h7.6v32.4H52V71.8z"/>
		<path id="Caminho_30198" d="M120,75c2.4,2.4,3.6,5.9,3.6,10.6v18.6H116V86.6c0-2.8-0.6-5-1.9-6.4c-1.4-1.5-3.4-2.3-5.4-2.2
			c-2.3-0.1-4.5,0.8-6.1,2.5c-1.5,1.7-2.3,4.1-2.3,7.2v16.4h-7.6V86.6c0-2.8-0.6-5-1.9-6.4c-1.4-1.5-3.4-2.3-5.4-2.2
			c-2.3-0.1-4.6,0.8-6.2,2.5c-1.5,1.7-2.3,4.1-2.3,7.2v16.4h-7.6V71.8h7.2v4.1c1.2-1.5,2.8-2.6,4.5-3.3c1.9-0.8,4-1.2,6.1-1.2
			c2.2,0,4.4,0.4,6.5,1.4c1.8,0.9,3.4,2.3,4.5,4c1.4-1.7,3.1-3.1,5.2-4c2.2-1,4.6-1.5,7-1.4C114.4,71.5,117.7,72.6,120,75z"/>
		<path id="Caminho_30199" d="M156.6,74.9c2.5,2.3,3.8,5.7,3.8,10.3v19h-7.2v-3.9c-1,1.5-2.4,2.6-4,3.2c-2,0.8-4.1,1.2-6.2,1.1
			c-2.2,0-4.4-0.4-6.4-1.2c-1.7-0.7-3.2-1.9-4.2-3.5c-1-1.5-1.5-3.2-1.5-5c-0.1-2.7,1.1-5.3,3.2-7c2.2-1.8,5.6-2.6,10.2-2.6h8.4
			v-0.5c0.1-2-0.6-3.9-2-5.2c-1.4-1.2-3.4-1.8-6-1.8c-1.8,0-3.6,0.3-5.4,0.8c-1.6,0.5-3.1,1.3-4.5,2.4l-3-5.5c1.8-1.4,3.9-2.4,6.1-3
			c2.5-0.7,5-1,7.6-1C150.5,71.5,154.1,72.6,156.6,74.9z M149.7,97.8c1.4-0.8,2.6-2.2,3.1-3.7v-3.8H145c-4.4,0-6.5,1.4-6.5,4.3
			c0,1.3,0.6,2.5,1.6,3.3c1.3,0.9,2.9,1.3,4.5,1.2C146.4,99.1,148.2,98.7,149.7,97.8L149.7,97.8z"/>
		<path id="Caminho_30200" d="M202.6,71.8v27.5c0,11.4-5.8,17.1-17.5,17.1c-3,0-6-0.4-8.9-1.2c-2.5-0.7-4.9-1.8-6.9-3.4l3.4-5.7
			c1.6,1.3,3.4,2.2,5.4,2.8c2.1,0.7,4.3,1.1,6.6,1.1c3.6,0,6.2-0.8,7.8-2.4s2.5-4.1,2.5-7.4v-1.7c-1.3,1.4-2.9,2.5-4.7,3.2
			c-2,0.7-4,1.1-6.1,1.1c-2.9,0-5.8-0.6-8.3-2c-2.4-1.3-4.5-3.2-5.9-5.5c-1.5-2.5-2.2-5.3-2.2-8.2c-0.1-2.9,0.7-5.7,2.2-8.2
			c1.4-2.3,3.4-4.2,5.9-5.5c2.6-1.3,5.4-2,8.3-1.9c2.2,0,4.4,0.4,6.4,1.2c1.9,0.7,3.5,2,4.8,3.5v-4.3L202.6,71.8L202.6,71.8z
			 M192.3,93.7c1.8-1.7,2.8-4.2,2.8-6.7c0.1-2.5-0.9-4.9-2.8-6.6c-4.1-3.4-10.1-3.4-14.2,0c-1.8,1.7-2.8,4.1-2.8,6.6
			c-0.1,2.5,0.9,5,2.8,6.7C182.3,97.2,188.2,97.2,192.3,93.7z"/>
		<path id="Caminho_30201" d="M218.2,102.5c-2.6-1.4-4.7-3.4-6.2-5.9c-1.5-2.6-2.3-5.6-2.2-8.6c-0.1-3,0.7-6,2.2-8.5
			c1.5-2.5,3.6-4.5,6.2-5.9c5.6-2.8,12.2-2.8,17.8,0c2.6,1.3,4.7,3.4,6.2,5.9c2.9,5.3,2.9,11.8,0,17.1c-1.5,2.5-3.6,4.6-6.2,5.9
			C230.4,105.3,223.8,105.3,218.2,102.5L218.2,102.5z M234,95.3c3.6-4.2,3.6-10.5,0-14.7c-1.8-1.9-4.3-2.9-6.9-2.8
			c-2.6-0.1-5.1,0.9-6.9,2.8c-3.6,4.2-3.6,10.4,0,14.7C224,99.1,230.1,99.1,234,95.3z"/>
		<path id="Caminho_30202" d="M279.8,75c2.5,2.4,3.7,5.9,3.7,10.6v18.6h-7.6V86.6c0-2.8-0.7-5-2-6.4c-1.5-1.5-3.6-2.3-5.7-2.2
			c-2.5-0.1-4.9,0.8-6.6,2.5c-1.6,1.7-2.4,4.1-2.4,7.2v16.4h-7.6V71.8h7.2V76c1.3-1.5,2.9-2.7,4.7-3.4c2-0.8,4.2-1.2,6.4-1.2
			C273.6,71.3,277.1,72.6,279.8,75z"/>
	</g>
	<g>
		<rect id="Retângulo_104" x="6.5" y="33.9" class="st0" width="30.3" height="30.3"/>
		<rect id="Retângulo_105" x="6.5" y="3.6" class="st1" width="30.3" height="30.3"/>
		<path id="Caminho_30203" class="st2" d="M59.5,3.6H36.8v30.3h30.3V11.2C67.1,7,63.7,3.6,59.5,3.6z"/>
		<path id="Caminho_30204" class="st3" d="M59.5,64.2H44.4V41.5h22.7v15.2C67.1,60.8,63.7,64.2,59.5,64.2z"/>
	</g>
</g>
</svg>
